<svg width="20" height="20" viewBox="0 0 20 20" fill="none" xmlns="http://www.w3.org/2000/svg">
<g clip-path="url(#clip0_9_5)">
<path d="M12.9 14.32C11.56 15.369 9.85 16.002 7.992 16.002C3.574 16.002 -0.00799561 12.42 -0.00799561 8.00201C-0.00799561 3.58401 3.574 0.00201416 7.992 0.00201416C12.41 0.00201416 15.992 3.58401 15.992 8.00201C15.992 9.86001 15.359 11.569 14.297 12.927L14.31 12.909L19.66 18.239L18.24 19.659L12.91 14.319L12.9 14.32ZM8 14C11.314 14 14 11.314 14 8.00001C14 4.68601 11.314 2.00001 8 2.00001C4.686 2.00001 2 4.68601 2 8.00001C2 11.314 4.686 14 8 14Z" fill="#8A8787"/>
</g>
<defs>
<clipPath id="clip0_9_5">
<rect width="20" height="20" fill="white"/>
</clipPath>
</defs>
</svg>
